<?xml version="1.0" standalone="no"?><!DOCTYPE svg PUBLIC "-//W3C//DTD SVG 1.1//EN" "http://www.w3.org/Graphics/SVG/1.1/DTD/svg11.dtd"><svg t="1756213911532" class="icon" viewBox="0 0 1024 1024" version="1.1" xmlns="http://www.w3.org/2000/svg" p-id="6630" xmlns:xlink="http://www.w3.org/1999/xlink" width="200" height="200"><path d="M512.008 81.858c-237.562 0-430.14 192.586-430.14 430.148 0 237.552 192.578 430.136 430.14 430.136 237.546 0 430.132-192.582 430.132-430.136 0-237.562-192.586-430.148-430.132-430.148z" fill="#EDF3FC" p-id="6631"></path><path d="M512.008 2C230.788 2 2 230.786 2 512.004 2 793.218 230.788 1022 512.008 1022 793.222 1022 1022 793.218 1022 512.004 1022 230.786 793.222 2 512.008 2z m0 1003.662C239.8 1005.662 18.346 784.208 18.346 512.004 18.346 239.796 239.8 18.338 512.008 18.338c272.204 0 493.648 221.458 493.648 493.666 0 272.204-221.446 493.658-493.648 493.658z" fill="#EDF3FC" p-id="6632"></path><path d="M483.402 430.786a1896.6 1896.6 0 0 0-26.928 30.82c-4.484 5.254-12.93 4.958-18.222-0.63l-26.266-27.748c-68.388 18.136-118.798 80.436-118.798 154.53a159.6 159.6 0 0 0 8.05 50.088l0.162-0.504 18.818 6.472 17.44 34.186 35.826 24 79.792 23.586h74.07l52.648-41.694 0.67 0.19c20.258-26.79 32.286-60.148 32.286-96.324-0.002-77.924-55.76-142.796-129.548-156.972z" fill="#5D8EF9" p-id="6633"></path><path d="M453.07 467.75c-66.282 0-120.016 53.728-120.016 120.008 0 66.278 53.734 120.01 120.016 120.01 66.278 0 120.008-53.732 120.008-120.01 0.002-66.282-53.73-120.008-120.008-120.008z" fill="#8AC9F9" p-id="6634"></path><path d="M453.07 507.076l-49.218 75.086 49.218 36.282 49.214-36.276z" fill="#FFFFFF" p-id="6635"></path><path d="M453.07 630.81l-49.218-38.766 49.218 76.384 49.214-76.384z" fill="#FFFFFF" p-id="6636"></path><path d="M375.028 323.51a63.44 63.44 0 0 1-46.122-46.122l-0.976-3.872-0.972 3.872a63.448 63.448 0 0 1-46.132 46.122l-3.866 0.972 3.866 0.972a63.44 63.44 0 0 1 46.132 46.128l0.972 3.872 0.976-3.872a63.436 63.436 0 0 1 46.122-46.128l3.878-0.972-3.878-0.972zM295.082 446.774a50.376 50.376 0 0 1-36.622-36.622l-0.776-3.074-0.772 3.074a50.38 50.38 0 0 1-36.63 36.622l-3.07 0.772 3.07 0.772a50.372 50.372 0 0 1 36.63 36.626l0.772 3.074 0.776-3.074a50.362 50.362 0 0 1 36.622-36.626l3.08-0.772-3.08-0.772z" fill="#5D8EF9" p-id="6637"></path><path d="M795.498 418.454a59.906 59.906 0 0 1-43.516-43.518l-0.918-3.66-0.91 3.66a59.9 59.9 0 0 1-43.528 43.518l-3.648 0.912 3.648 0.914a59.886 59.886 0 0 1 43.528 43.518l0.91 3.656 0.918-3.656a59.89 59.89 0 0 1 43.516-43.518l3.664-0.914-3.664-0.912z" fill="#330D84" p-id="6638"></path><path d="M480.304 336.438a6.774 6.774 0 0 1-1.576-2.81c-35.872 31.346-63.352 60.582-75.742 74.288-4.128 4.562-3.656 11.94 1.056 16.918l34.21 36.14c5.29 5.588 13.738 5.884 18.222 0.63 12.46-14.596 37.932-43.86 69.43-76.996l-45.6-48.17zM735.804 199.152c-8.132-8.592-99.688 23.304-179.24 74.956a560.144 560.144 0 0 0-13.42 8.996l40.976 43.288c1.998-1.884 4-3.764 6.01-5.632 70.344-65.416 154.71-112.062 145.674-121.608z" fill="#6857E5" p-id="6639"></path><path d="M586.664 329.078l-46.59-49.218a6.866 6.866 0 0 0-9.702-0.266l-49.802 47.144a6.862 6.862 0 0 0-0.266 9.7l46.592 49.218a6.864 6.864 0 0 0 9.698 0.266l49.802-47.146a6.86 6.86 0 0 0 0.268-9.698z" fill="#330D84" p-id="6640"></path><path d="M521.638 273.182c-10.134-10.704-27.026-11.166-37.73-1.034l-8.228 7.79c-10.702 10.134-11.166 27.022-1.034 37.726l7.328 7.742 46.992-44.484-7.328-7.74zM817.478 585.702L584.99 340.106l-46.992 44.484 232.486 245.594c10.132 10.704 27.026 11.166 37.726 1.034l8.232-7.792c10.702-10.126 11.166-27.02 1.036-37.724zM642.502 725.588l-31.668-32.92-30.84-8.774-52.648 41.694h-74.07l-79.792-23.586-35.826-24-17.442-34.186-18.818-6.474-17.802 55.66-23.784 49-9.598 53.868h428.038z" fill="#FFBE1B" p-id="6641"></path></svg>