<?xml version="1.0" standalone="no"?><!DOCTYPE svg PUBLIC "-//W3C//DTD SVG 1.1//EN" "http://www.w3.org/Graphics/SVG/1.1/DTD/svg11.dtd"><svg t="1756213514505" class="icon" viewBox="0 0 1024 1024" version="1.1" xmlns="http://www.w3.org/2000/svg" p-id="3323" xmlns:xlink="http://www.w3.org/1999/xlink" width="200" height="200"><path d="M478.496 96L221.76 497.696l290.368 142.72 285.76-142.848L545.696 96h-67.2zM480 212.384v139.232l-125.248 56.832L480 212.384z m64 1.28l122.176 194.56L544 352.16V213.696z m-64 208.224v131.424l-139.008-68.384L480 421.888z m64 0.736l135.872 62.4L544 552.896v-130.304zM224 560.384v80.64l253.696 282.976h68.608L800 640.992v-80.64l-288 147.648-288-147.616z m144.672 146.112L480 763.552v67.072l-111.328-124.128z m286.656 0L544 830.624v-67.072l111.328-57.056z" p-id="3324" fill="#ffffff"></path></svg>